<?xml version="1.0" encoding="UTF-8"?><svg id="Layer_1" xmlns="http://www.w3.org/2000/svg" viewBox="0 0 86.997 105.836"><defs><style>.cls-1{fill:#c42828;}.cls-2{fill:#299245;}.cls-3{fill:#fff;font-family:AkiraExpanded-SuperBold, 'Akira Expanded';font-size:10px;font-weight:700;glyph-orientation-vertical:0deg;letter-spacing:-.038em;text-orientation:upright;writing-mode:tb;}</style></defs><path class="cls-1" d="m39.319,104.425l-7.004,1.132c-11.723,1.895-22.762-6.071-24.658-17.794L.265,50.019c-1.895-11.723,6.6-27.47,18.323-29.365l7.004-1.132c11.723-1.895,22.762,6.071,24.658,17.794l6.863,42.452c1.895,11.723-6.071,22.762-17.794,24.658Z"/><path class="cls-1" d="m60.308,105.059l-9.083-.733c-11.836-.955-20.658-11.324-19.703-23.161l3.457-42.864c.955-11.836,11.324-20.658,23.161-19.703l9.083.733c11.836.955,20.658,11.324,19.703,23.161l-1.616,20.034-1.841,22.83c-.955,11.836-11.324,20.658-23.161,19.703Z"/><path class="cls-2" d="m42.371,24.177S46.224-2.34,57.786.167c0,0,2.914,13.72-15.415,24.01Z"/><path class="cls-2" d="m43.199,24.036S40.126-2.863,26.669.534c0,0-4.067,14.268,16.53,23.502Z"/><text class="cls-3" transform="translate(77.368 36.562) rotate(3.613) scale(1.321 1.15)"><tspan x="0" y="0">JUICY</tspan></text></svg>