<?xml version="1.0" encoding="UTF-8"?>
<svg id="tastyCherries" xmlns="http://www.w3.org/2000/svg" viewBox="0 0 144.161 144.161"><defs><style>.cls-1{letter-spacing:-.08em;}.cls-2{fill:#e22343;}.cls-3{fill:#4aa54b;}.cls-4{fill:#25336c;font-family:AkiraExpanded-SuperBold, 'Akira Expanded';font-size:23.822px;font-weight:700;}.cls-5{fill:none;stroke:#e22343;stroke-miterlimit:10;stroke-width:2px;}.cls-6{letter-spacing:-.227em;}.cls-7{letter-spacing:-.05em;}.cls-8{letter-spacing:-.038em;}</style></defs><circle class="cls-2" cx="54.379" cy="96.511" r="18.12"/><circle class="cls-2" cx="93.39" cy="97.021" r="18.12"/><path class="cls-3" d="m55.719,82.417c1.562-19.522,9.043-48.842,12.199-60.586.73-2.715-1.111-5.447-3.901-5.796h0c-6.638,10.289-11.285,67.046-11.285,67.046l2.987-.664Z"/><path class="cls-3" d="m90.346,83.718c-8.311-20.742-28.707-52.627-28.707-52.627l4.123-1.923c8.146,7.089,27.182,54.354,27.182,54.354l-2.598.196Z"/><circle class="cls-5" cx="72.08" cy="72.08" r="71.08"/><text class="cls-4" transform="translate(8.775 71.837) scale(1.26 1.15)"><tspan class="cls-6" x="0" y="0">T</tspan><tspan class="cls-1" x="15.635" y="0">A</tspan><tspan class="cls-7" x="38.214" y="0">S</tspan><tspan class="cls-8" x="58.712" y="0">TY</tspan></text></svg>