<?xml version="1.0" encoding="UTF-8"?><svg id="localGrapes" xmlns="http://www.w3.org/2000/svg" viewBox="0 0 154.791 140.667"><defs><style>.cls-1{fill:#9d74b3;}.cls-2{fill:#ad82ba;}.cls-3,.cls-4{fill:#43a548;}.cls-4{font-family:AkiraExpanded-SuperBold, 'Akira Expanded';font-size:13px;font-weight:700;}</style></defs><circle class="cls-2" cx="55.926" cy="117.906" r="15.018"/><circle class="cls-1" cx="73.357" cy="112.543" r="15.018"/><circle class="cls-2" cx="58.161" cy="91.537" r="15.018"/><circle class="cls-1" cx="57.714" cy="68.743" r="15.018"/><circle class="cls-1" cx="78.72" cy="77.235" r="15.018"/><circle class="cls-2" cx="76.486" cy="52.653" r="15.018"/><circle class="cls-2" cx="86.318" cy="94.665" r="15.018"/><circle class="cls-2" cx="105.09" cy="75.894" r="15.018"/><circle class="cls-1" cx="94.363" cy="58.016" r="15.018"/><circle class="cls-1" cx="60.396" cy="41.033" r="15.018"/><circle class="cls-1" cx="119.392" cy="56.229" r="15.018"/><circle class="cls-2" cx="80.955" cy="36.563" r="15.018"/><circle class="cls-2" cx="108.218" cy="38.351" r="15.018"/><path class="cls-3" d="m93.916,31.647s-3.575-27.71,18.771-27.263-18.771,27.263-18.771,27.263Z"/><path class="cls-3" d="m94.161,31.647s3.375-27.71-17.717-27.263,17.717,27.263,17.717,27.263Z"/><text class="cls-4" transform="translate(21.286 75.852) rotate(-91.422) scale(1.46 1.15)"><tspan x="0" y="0">L</tspan></text><text class="cls-4" transform="translate(20.638 62.165) rotate(-77.38) scale(1.46 1.15)"><tspan x="0" y="0">O</tspan></text><text class="cls-4" transform="translate(24.3 45.578) rotate(-61.427) scale(1.46 1.15)"><tspan x="0" y="0">C</tspan></text><text class="cls-4" transform="translate(31.075 32.198) rotate(-46.485) scale(1.46 1.15)"><tspan x="0" y="0">A</tspan></text><text class="cls-4" transform="translate(43.673 19.104) rotate(-31.554) scale(1.46 1.15)"><tspan x="0" y="0">L</tspan></text><text class="cls-4" transform="translate(103.932 138.019) rotate(-20.527) scale(1.46 1.15)"><tspan x="0" y="0">L</tspan></text><text class="cls-4" transform="translate(119.133 132.309) rotate(-36.938) scale(1.46 1.15)"><tspan x="0" y="0">O</tspan></text><text class="cls-4" transform="translate(134.733 120.082) rotate(-55.438) scale(1.46 1.15)"><tspan x="0" y="0">C</tspan></text><text class="cls-4" transform="translate(144.891 105.538) rotate(-73.091) scale(1.46 1.15)"><tspan x="0" y="0">A</tspan></text><text class="cls-4" transform="translate(150.407 85.378) rotate(-90.548) scale(1.46 1.15)"><tspan x="0" y="0">L</tspan></text></svg>