<?xml version="1.0" encoding="UTF-8"?>
<svg id="handMade" xmlns="http://www.w3.org/2000/svg" viewBox="0 0 110.76 114.297"><defs><style>.cls-1{fill:#f3b636;}.cls-2{fill:#1b2b57;}.cls-3{fill:#27306b;}.cls-4{fill:#fff;stroke:#f3b636;}.cls-4,.cls-5{stroke-miterlimit:10;stroke-width:2px;}.cls-6{font-size:13.384px;}.cls-6,.cls-7{fill:#26316b;font-family:AkiraExpanded-SuperBold, 'Akira Expanded';font-weight:700;}.cls-5{fill:none;stroke:#1b2b57;}.cls-7{font-size:14.188px;}</style></defs><circle class="cls-4" cx="55.38" cy="58.917" r="54.38"/><circle class="cls-1" cx="55.457" cy="58.928" r="30.793"/><circle class="cls-3" cx="38.715" cy="48.808" r="2.911"/><circle class="cls-2" cx="71.635" cy="49.389" r="2.911"/><text class="cls-7" transform="translate(28.768 33.632) rotate(-34.33)"><tspan x="0" y="0">H</tspan></text><text class="cls-7" transform="translate(38.323 27.321) rotate(-21.083)"><tspan x="0" y="0"> </tspan></text><text class="cls-7" transform="translate(43.209 24.722) rotate(-6.745)"><tspan x="0" y="0">A</tspan></text><text class="cls-7" transform="translate(56.14 23.478) rotate(7.748)"><tspan x="0" y="0"> </tspan></text><text class="cls-7" transform="translate(61.623 23.7) rotate(20.968)"><tspan x="0" y="0">N</tspan></text><text class="cls-7" transform="translate(72.29 27.978) rotate(34.171)"><tspan x="0" y="0"> </tspan></text><text class="cls-7" transform="translate(77.104 30.613) rotate(47.388)"><tspan x="0" y="0">D</tspan></text><text class="cls-6" transform="translate(22.121 88.328) rotate(41.147) scale(.978 1)"><tspan x="0" y="0">M</tspan></text><text class="cls-6" transform="translate(34.619 98.294) rotate(25.186) scale(.978 1)"><tspan x="0" y="0"> </tspan></text><text class="cls-6" transform="translate(40.778 101.599) rotate(10.864) scale(.978 1)"><tspan x="0" y="0">A</tspan></text><text class="cls-6" transform="translate(54.549 103.731) rotate(-3.315) scale(.978 1)"><tspan x="0" y="0"> </tspan></text><text class="cls-6" transform="translate(61.354 103.608) rotate(-16.073) scale(.978 1)"><tspan x="0" y="0">D</tspan></text><text class="cls-6" transform="translate(73.14 99.836) rotate(-29.158) scale(.978 1)"><tspan x="0" y="0"> </tspan></text><text class="cls-6" transform="translate(79.056 96.734) rotate(-40.974) scale(.978 1)"><tspan x="0" y="0">E</tspan></text><path class="cls-5" d="m66.53,65.301c0,4.424-4.824,8.01-10.775,8.01s-10.775-3.586-10.775-8.01"/></svg>