<svg id="Layer_1" data-name="Layer 1" xmlns="http://www.w3.org/2000/svg" viewBox="0 0 268 485.4"><defs><style>.cls-1{fill:#da282e;}.cls-2{fill:#ffe1b6;}.cls-3{fill:#fff;}.cls-4{fill:#388140;}</style></defs><g id="Default_Bottle" data-name="Default Bottle"><path class="cls-1" d="M452.1,142.77v120c30.26,1,50.7,11.77,64.4,24.61,17.28,16.19,26.35,38.87,26.38,62.1L543,590.5c0,20.22-17,36.63-38,36.63H410.74l-2.66-484.52Z" transform="translate(-275 -141.74)"/><path class="cls-1" d="M369.55,142.77v120c-31.47,1-52.74,11.77-67,24.61a83.4,83.4,0,0,0-27.44,62.1L275,584.09c0,23.77,20,43,44.64,43h92.94l3.51-484.52Z" transform="translate(-275 -141.74)"/><rect class="cls-2" x="89.96" width="91.71" height="60.52"/><path class="cls-3" d="M511.12,577.74H309.42a5.23,5.23,0,0,1-5.32-5.13V353.71a5.23,5.23,0,0,1,5.32-5.13h201.7a5.24,5.24,0,0,1,5.33,5.13v218.9A5.22,5.22,0,0,1,511.12,577.74Z" transform="translate(-275 -141.74)"/></g><g id="ketchup"><ellipse class="cls-1" cx="138.57" cy="333.22" rx="60.67" ry="56.59"/><path class="cls-4" d="M407.13,435.57c7.18,23.94,16.76,0,16.76,0C447.83,435.57,443,418,443,418H422.29V389.28H407.13v46.29Z" transform="translate(-275 -141.74)"/><path class="cls-4" d="M422.06,434.76c-7.34,23.94-17.12,0-17.12,0-24.46,0-19.56-17.56-19.56-17.56h21.2V388.47h15.49v46.29Z" transform="translate(-275 -141.74)"/></g></svg>