<?xml version="1.0" encoding="utf-8"?>
<!-- Generator: Adobe Illustrator 27.2.0, SVG Export Plug-In . SVG Version: 6.00 Build 0)  -->
<svg version="1.1" id="Layer_1" xmlns="http://www.w3.org/2000/svg" xmlns:xlink="http://www.w3.org/1999/xlink" x="0px" y="0px"
	 viewBox="0 0 89.6 97.8" style="enable-background:new 0 0 89.6 97.8;" xml:space="preserve">
<style type="text/css">
	.st0{fill:#F4C83B;}
	.st1{fill:#4AA54B;}
	.st2{fill:#FFFFFF;}
	.st3{font-family:'AkiraExpanded-SuperBold';}
	.st4{font-size:9px;}
</style>
<path class="st0" d="M75.1,68.5c-9.3,16.4-29.4,19.7-46.5,12.9C23,79.2,15.2,76.5,12.4,72c-2.2-3.5-0.3-9.9-0.5-13.9
	c-0.4-7.8-0.3-15.9,3.8-23.2C25,18.5,45.8,12.7,62.2,22S84.4,52.1,75.1,68.5L75.1,68.5z"/>
<path class="st1" d="M64.6,23.6c0,0-10.7-16.9-25.4-11s-0.2,10.8-0.2,10.8S53.6,28.6,64.6,23.6z"/>
<path class="st1" d="M64,23c0,0,15.7,3.3,15.7,15.7c0,12.4-7.9,3-7.9,3S63.6,32.4,64,23z"/>
<text transform="matrix(1 0 0 1 20.0708 51.0537)"><tspan x="0" y="0" class="st2 st3 st4">Pucker</tspan><tspan x="14.8" y="10.8" class="st2 st3 st4">Up!</tspan></text>
</svg>
