<?xml version="1.0" encoding="UTF-8"?><svg id="Layer_1" xmlns="http://www.w3.org/2000/svg" viewBox="0 0 82.874 109.111"><defs><style>.cls-1{letter-spacing:-.021em;}.cls-2{font-family:AkiraExpanded-SuperBold, 'Akira Expanded';font-size:10.396px;font-weight:700;}.cls-2,.cls-3{fill:#fff;}.cls-4{letter-spacing:-.129em;}.cls-5{fill:#d6436d;}.cls-3{stroke:#d6436d;stroke-miterlimit:10;stroke-width:2px;}.cls-6{letter-spacing:-.136em;}.cls-7{letter-spacing:-.07em;}.cls-8{letter-spacing:-.07em;}.cls-9{letter-spacing:-.07em;}</style></defs><ellipse class="cls-3" cx="41.437" cy="54.556" rx="40.437" ry="53.556"/><path class="cls-5" d="m73.685,46.92c0,4.924-1.368,9.858-4.105,13.945-.493.746-1.04,1.465-1.626,2.148l-25.904,30.156-26.92-31.33c-.242-.282-.477-.573-.711-.865l25.896-30.147c.586-.683,1.196-1.311,1.83-1.875,7.67-6.954,18.765-6.326,25.81,1.875,3.816,4.442,5.731,10.267,5.731,16.093Z"/><path class="cls-5" d="m69.58,60.864c-.493.746-1.04,1.465-1.626,2.148l-25.904,30.156-26.92-31.33c-.242-.282-.477-.573-.711-.865-3.339-4.324-5.012-9.776-5.012-15.228,0-5.816,1.908-11.642,5.723-16.093,7.42-8.638,19.336-8.875,27.014-.701.211.228.422.455.633.701l26.803,31.212Z"/><text class="cls-2" transform="translate(19.102 47.429) scale(1.081 1)"><tspan class="cls-9" x="0" y="0">L</tspan><tspan class="cls-1" x="7.46" y="0">O</tspan><tspan class="cls-4" x="16.757" y="0">C</tspan><tspan class="cls-8" x="24.928" y="0">AL</tspan><tspan class="cls-9" x="4.849" y="12.475">L</tspan><tspan class="cls-6" x="12.309" y="12.475">O</tspan><tspan class="cls-7" x="20.409" y="12.475">VE</tspan></text></svg>