<?xml version="1.0" encoding="UTF-8"?><svg id="freshOrangeSlice" xmlns="http://www.w3.org/2000/svg" viewBox="0 0 165.173 119.691"><defs><style>.cls-1{fill:#f9d439;}.cls-2{fill:#fbecb0;}.cls-3{fill:#fba930;}.cls-4{fill:#fff;font-family:AkiraExpanded-SuperBold, 'Akira Expanded';font-size:10px;font-weight:700;}</style></defs><path class="cls-3" d="m157.756,7.094c14.373,43.563-9.291,90.529-52.854,104.902C61.339,126.368,14.373,102.704,0,59.141"/><text class="cls-4" transform="translate(18.823 87.439) rotate(41.053) scale(1.991 1.15)"><tspan x="0" y="0">1</tspan></text><text class="cls-4" transform="translate(30.15 97.307) rotate(26.457) scale(1.991 1.15)"><tspan x="0" y="0">0</tspan></text><text class="cls-4" transform="translate(45.777 104.963) rotate(13.87) scale(1.991 1.15)"><tspan x="0" y="0">0</tspan></text><text class="cls-4" transform="translate(62.741 109.662) rotate(-.068) scale(1.991 1.15)"><tspan x="0" y="0">%</tspan></text><text class="cls-4" transform="translate(90.197 108.796) rotate(-10.591) scale(1.991 1.15)"><tspan x="0" y="0"> </tspan></text><text class="cls-4" transform="translate(99.74 107.243) rotate(-18.084) scale(1.991 1.15)"><tspan x="0" y="0">f</tspan></text><text class="cls-4" transform="translate(116.58 101.721) rotate(-29.753) scale(1.991 1.15)"><tspan x="0" y="0">r</tspan></text><text class="cls-4" transform="translate(133.483 91.757) rotate(-43.542) scale(1.991 1.15)"><tspan x="0" y="0">e</tspan></text><text class="cls-4" transform="translate(146.311 79.592) rotate(-61.613) scale(1.991 1.15)"><tspan x="0" y="0">s</tspan></text><text class="cls-4" transform="translate(155.874 60.92) rotate(-88.265) scale(1.991 1.15)"><tspan x="0" y="0">h</tspan></text><path class="cls-2" d="m154.594,10.82c7.846,23.78-19.115,54.051-60.218,67.612-41.103,13.561-80.784,5.277-88.63-18.504"/><path class="cls-1" d="m43.858,80.305c-20.475.369-32.886-19.916-32.886-19.916l51.368-15.675-18.482,35.591Z"/><path class="cls-1" d="m84.008,76.997c-9.123,3.438-38.203,3.076-38.203,3.076l25.469-37.64,12.734,34.564Z"/><path class="cls-1" d="m79.048,40.36l40.248,22.89-16.238,8.31-16.344,5.26"/><path class="cls-1" d="m121.122,61.837s17.319-11.792,21.188-20.161l-55.641-4.945,34.453,25.106Z"/><path class="cls-1" d="m143.036,39.772s10.051-12.948,8.589-24.343l-58.115,17.782,49.525,6.56Z"/></svg>