<?xml version="1.0" encoding="UTF-8"?><svg id="Layer_1" xmlns="http://www.w3.org/2000/svg" viewBox="0 0 89.623 97.769"><defs><style>.cls-1{fill:#f7903a;}.cls-2{fill:#4aa54b;}.cls-3{fill:#fff;font-family:AkiraExpanded-SuperBold, 'Akira Expanded';font-size:5px;font-weight:700;}</style></defs><path class="cls-1" d="m75.641,67.02c-3.628,20.592-23.453,31.428-43.854,30.716-6.665-.233-15.808-.225-20.444-3.855-3.615-2.831-4.015-10.281-5.693-14.36-3.289-7.995-6.196-16.457-4.578-25.639,3.628-20.592,23.262-34.344,43.854-30.716s34.344,23.262,30.716,43.854Z"/><text class="cls-3" transform="translate(33.514 94.386) rotate(-1.076) scale(1.31 1.15)"><tspan x="0" y="0">S</tspan></text><text class="cls-3" transform="translate(39.882 94.231) rotate(-11.307) scale(1.31 1.15)"><tspan x="0" y="0">u</tspan></text><text class="cls-3" transform="translate(46.568 92.809) rotate(-22.001) scale(1.31 1.15)"><tspan x="0" y="0">p</tspan></text><text class="cls-3" transform="translate(52.482 90.339) rotate(-31.67) scale(1.31 1.15)"><tspan x="0" y="0">e</tspan></text><text class="cls-3" transform="translate(57.703 87.049) rotate(-42.178) scale(1.31 1.15)"><tspan x="0" y="0">r</tspan></text><text class="cls-3" transform="translate(62.071 82.967) rotate(-49.599) scale(1.31 1.15)"><tspan x="0" y="0"> </tspan></text><text class="cls-3" transform="translate(64.229 80.525) rotate(-56.51) scale(1.31 1.15)"><tspan x="0" y="0">F</tspan></text><text class="cls-3" transform="translate(67.468 75.588) rotate(-66.295) scale(1.31 1.15)"><tspan x="0" y="0">r</tspan></text><text class="cls-3" transform="translate(70.003 69.613) rotate(-76.042) scale(1.31 1.15)"><tspan x="0" y="0">e</tspan></text><text class="cls-3" transform="translate(71.362 64.108) rotate(-85.766) scale(1.31 1.15)"><tspan x="0" y="0">s</tspan></text><text class="cls-3" transform="translate(71.794 57.61) rotate(-96.262) scale(1.31 1.15)"><tspan x="0" y="0">h</tspan></text><path class="cls-2" d="m58.729,29.051s7.289-18.368-6.123-26.531-8.746,6.123-8.746,6.123c0,0,4.373,14.577,14.869,20.408Z"/><path class="cls-2" d="m58.639,29.141s16.662,10.625,27.21-1.005-4.362-9.745-4.362-9.745c0,0-15.141,1.543-22.848,10.75Z"/></svg>