<?xml version="1.0" encoding="UTF-8"?><svg id="Layer_1" xmlns="http://www.w3.org/2000/svg" viewBox="0 0 169.605 169.605"><defs><style>.cls-1{fill:#e6f2e3;}.cls-2{fill:#d22a4d;}.cls-3{fill:#1e1e1e;}.cls-4,.cls-5{fill:#328e44;}.cls-6{fill:none;stroke:#d22a4d;stroke-miterlimit:10;stroke-width:2px;}.cls-5{font-family:AkiraExpanded-SuperBold, 'Akira Expanded';font-size:18.145px;font-weight:700;}</style></defs><path class="cls-4" d="m51.249,114.143l-.356,3.062s24.903,12.648,46.776,2.852c13.287-5.951,27.616-25.858,28.344-45.577l-2.014-1.172"/><path class="cls-1" d="m51.476,111.677l-.345,2.963s24.096,12.239,45.261,2.759c12.857-5.759,26.722-25.02,27.426-44.101l-1.949-1.134"/><path class="cls-2" d="m51.47,111.699l5.977-65.745,64.416,26.231s-12.286,66.409-70.393,39.513Z"/><path class="cls-3" d="m67.689,60.76c-4.027,1.007,5.959,5.042,5.959,5.042,0,0,1.375-6.876-5.959-5.042Z"/><path class="cls-3" d="m69.28,81.645c-4.027,1.007,5.959,5.042,5.959,5.042,0,0,1.375-6.876-5.959-5.042Z"/><path class="cls-3" d="m62.785,97.343c-4.027,1.007,5.959,5.042,5.959,5.042,0,0,1.375-6.876-5.959-5.042Z"/><path class="cls-3" d="m87.207,95.425c-4.027,1.007,5.959,5.042,5.959,5.042,0,0,1.375-6.876-5.959-5.042Z"/><path class="cls-3" d="m101.509,79.9c-4.027,1.007,5.959,5.042,5.959,5.042,0,0,1.375-6.876-5.959-5.042Z"/><path class="cls-3" d="m84.472,75.158c-4.027,1.007,5.959,5.042,5.959,5.042,0,0,1.375-6.876-5.959-5.042Z"/><text class="cls-5" transform="translate(28.335 61.905) rotate(-54.446) scale(1.321 1.15)"><tspan x="0" y="0">O</tspan></text><text class="cls-5" transform="translate(40.713 44.477) rotate(-34.889) scale(1.321 1.15)"><tspan x="0" y="0">R</tspan></text><text class="cls-5" transform="translate(57.522 32.522) rotate(-15.593) scale(1.321 1.15)"><tspan x="0" y="0">G</tspan></text><text class="cls-5" transform="translate(76.636 26.624) rotate(4.118) scale(1.321 1.15)"><tspan x="0" y="0">A</tspan></text><text class="cls-5" transform="translate(99.308 28.143) rotate(23.981) scale(1.321 1.15)"><tspan x="0" y="0">N</tspan></text><text class="cls-5" transform="translate(120.011 38.605) rotate(38.585) scale(1.321 1.15)"><tspan x="0" y="0">I</tspan></text><text class="cls-5" transform="translate(125.536 41.869) rotate(51.494) scale(1.321 1.15)"><tspan x="0" y="0">C</tspan></text><text class="cls-5" transform="translate(21.587 117.095) rotate(57.423) scale(1.321 1.15)"><tspan x="0" y="0">O</tspan></text><text class="cls-5" transform="translate(36.66 138.768) rotate(33.602) scale(1.321 1.15)"><tspan x="0" y="0">R</tspan></text><text class="cls-5" transform="translate(58.204 152.191) rotate(11.376) scale(1.321 1.15)"><tspan x="0" y="0">G</tspan></text><text class="cls-5" transform="translate(82.512 156.777) rotate(-10.611) scale(1.321 1.15)"><tspan x="0" y="0">A</tspan></text><text class="cls-5" transform="translate(109.448 150.881) rotate(-33.402) scale(1.321 1.15)"><tspan x="0" y="0">N</tspan></text><text class="cls-5" transform="translate(130.786 134.531) rotate(-50.838) scale(1.321 1.15)"><tspan x="0" y="0">I</tspan></text><text class="cls-5" transform="translate(137.528 127.286) rotate(-67.229) scale(1.321 1.15)"><tspan x="0" y="0">C</tspan></text><circle class="cls-6" cx="84.803" cy="84.803" r="83.803"/></svg>