<?xml version="1.0" encoding="UTF-8"?><svg id="zestyLemonSlice" xmlns="http://www.w3.org/2000/svg" viewBox="0 0 108.896 113.901"><defs><style>.cls-1{fill:#fedf57;}.cls-2{fill:#ffeea9;}.cls-3{fill:#fff;font-family:AkiraExpanded-SuperBold, 'Akira Expanded';font-size:10px;font-weight:700;}</style></defs><path class="cls-1" d="m102.551,48.468c8.358,25.332-5.403,52.643-30.735,61.001s-52.643-5.403-61.001-30.735"/><text class="cls-3" transform="translate(36.292 106.178) rotate(12.708) scale(1.46 1.15)"><tspan x="0" y="0">Z</tspan></text><text class="cls-3" transform="translate(50.942 109.091) rotate(-2.419) scale(1.46 1.15)"><tspan x="0" y="0">e</tspan></text><text class="cls-3" transform="translate(63.922 108.471) rotate(-16.836) scale(1.46 1.15)"><tspan x="0" y="0">s</tspan></text><text class="cls-3" transform="translate(77.211 104.341) rotate(-31.315) scale(1.46 1.15)"><tspan x="0" y="0">t</tspan></text><text class="cls-3" transform="translate(89.011 97.162) rotate(-46.736) scale(1.46 1.15)"><tspan x="0" y="0">y</tspan></text><path class="cls-2" d="m100.712,50.635c4.562,13.828-11.115,31.431-35.017,39.317-23.902,7.886-46.976,3.068-51.538-10.76"/><path class="cls-1" d="m36.319,91.04c-11.906.214-19.123-11.581-19.123-11.581l29.871-9.115-10.747,20.696Z"/><path class="cls-1" d="m59.666,89.117c-5.305,1.999-22.215,1.789-22.215,1.789l14.81-21.888,7.405,20.099Z"/><path class="cls-1" d="m56.782,67.812l23.404,13.311-9.442,4.832-9.504,3.059"/><path class="cls-1" d="m81.248,80.301s10.071-6.857,12.321-11.723l-32.355-2.876,20.034,14.599Z"/><path class="cls-1" d="m93.992,67.47s5.845-7.529,4.995-14.155l-33.794,10.34,28.799,3.815Z"/></svg>